<svg xmlns="http://www.w3.org/2000/svg" width="38" height="48" viewBox="0 0 38 48" fill="none">
  <g clip-path="url(#clip0_1_509)">
    <path d="M18.9297 42.5433C29.1709 42.5433 37.4731 34.2412 37.4731 23.9999C37.4731 13.7587 29.1709 5.45654 18.9297 5.45654C8.68848 5.45654 0.386322 13.7587 0.386322 23.9999C0.386322 34.2412 8.68848 42.5433 18.9297 42.5433Z" fill="#E6F2EF"/>
    <mask id="mask0_1_509" style="mask-type:luminance" maskUnits="userSpaceOnUse" x="0" y="5" width="38" height="38">
      <path d="M18.9297 42.5433C29.1709 42.5433 37.4731 34.2412 37.4731 23.9999C37.4731 13.7587 29.1709 5.45654 18.9297 5.45654C8.68848 5.45654 0.386322 13.7587 0.386322 23.9999C0.386322 34.2412 8.68848 42.5433 18.9297 42.5433Z" fill="white"/>
    </mask>
    <g mask="url(#mask0_1_509)">
      <path d="M37.4731 34.4304H0.386322V42.7749H37.4731V34.4304Z" fill="#AED3CA"/>
      <path d="M13.9065 22.0684L7.72641 28.2726V33.7817C7.72641 33.867 7.74333 33.9516 7.77632 34.0305C7.80924 34.1093 7.85745 34.181 7.91833 34.2412C7.97914 34.3015 8.05138 34.3493 8.13081 34.3818C8.21024 34.4143 8.29531 34.4308 8.38122 34.4306H11.6935C11.7716 34.4308 11.8491 34.4158 11.9212 34.3862C11.9935 34.3566 12.0591 34.3131 12.1143 34.2582C12.1696 34.2033 12.2133 34.1381 12.243 34.0663C12.2728 33.9945 12.288 33.9176 12.2877 33.8399V30.1089C12.2877 30.0523 12.299 29.9963 12.3208 29.944C12.3427 29.8917 12.3748 29.8441 12.4151 29.8042C12.4555 29.7642 12.5034 29.7326 12.5561 29.7112C12.6088 29.6896 12.6653 29.6787 12.7222 29.679H15.0949C15.2096 29.679 15.3195 29.7243 15.4007 29.8049C15.4818 29.8856 15.5274 29.9949 15.5274 30.1089V33.8399C15.5274 33.9965 15.59 34.1468 15.7014 34.2576C15.8128 34.3684 15.9639 34.4306 16.1215 34.4306H19.4339C19.5198 34.4308 19.6048 34.4143 19.6843 34.3818C19.7637 34.3493 19.8359 34.3015 19.8967 34.2412C19.9576 34.181 20.0058 34.1093 20.0388 34.0305C20.0717 33.9516 20.0887 33.867 20.0887 33.7817V28.2726L13.9065 22.0684Z" fill="#4BB1BC"/>
      <path d="M19.9816 29.4068C19.866 29.4075 19.7514 29.3842 19.6445 29.3385C19.5378 29.2929 19.4409 29.2257 19.3597 29.141L14.3546 23.937C14.2959 23.8757 14.2261 23.8269 14.149 23.7937C14.0719 23.7604 13.9891 23.7432 13.9055 23.7432C13.8219 23.7432 13.7392 23.7604 13.6621 23.7937C13.585 23.8269 13.5151 23.8757 13.4565 23.937L8.45339 29.141C8.37234 29.2252 8.27607 29.2921 8.16991 29.338C8.06374 29.3839 7.94986 29.4078 7.83473 29.4084C7.71957 29.4089 7.60545 29.3862 7.49887 29.3413C7.3923 29.2965 7.29534 29.2305 7.21354 29.1471C7.13174 29.0637 7.0667 28.9645 7.02213 28.8552C6.97756 28.7459 6.95433 28.6286 6.95378 28.5101C6.95323 28.3916 6.97536 28.2741 7.0189 28.1644C7.06245 28.0547 7.12656 27.9549 7.20758 27.8707L13.2856 21.5519C13.4537 21.3874 13.6767 21.2957 13.9085 21.2957C14.1404 21.2957 14.3634 21.3874 14.5314 21.5519L20.6055 27.8707C20.7279 27.9968 20.8112 28.1575 20.8447 28.3324C20.8783 28.5073 20.8606 28.6885 20.794 28.8531C20.7274 29.0177 20.6148 29.1581 20.4705 29.2567C20.3263 29.3553 20.1567 29.4076 19.9836 29.4068H19.9816Z" fill="#389196"/>
      <path d="M26.3635 27.8629L24.7245 29.502L34.5586 39.3361L36.1977 37.697L26.3635 27.8629Z" fill="#EEA45A"/>
      <mask id="mask1_1_509" style="mask-type:luminance" maskUnits="userSpaceOnUse" x="8" y="12" width="21" height="21">
        <path d="M18.9297 32.1126C24.477 32.1126 28.974 27.6156 28.974 22.0683C28.974 16.5209 24.477 12.0239 18.9297 12.0239C13.3824 12.0239 8.88538 16.5209 8.88538 22.0683C8.88538 27.6156 13.3824 32.1126 18.9297 32.1126Z" fill="#C4C4C4"/>
      </mask>
      <g mask="url(#mask1_1_509)">
        <path d="M18.9297 32.1126C24.477 32.1126 28.974 27.6156 28.974 22.0683C28.974 16.5209 24.477 12.0239 18.9297 12.0239C13.3824 12.0239 8.88538 16.5209 8.88538 22.0683C8.88538 27.6156 13.3824 32.1126 18.9297 32.1126Z" fill="#E5F1EE"/>
        <path d="M14.4857 18.5913L6.56746 26.7344V33.965C6.56746 34.0771 6.58918 34.1881 6.63137 34.2916C6.67357 34.3951 6.73539 34.4891 6.81334 34.5682C6.89127 34.6473 6.98378 34.7101 7.08555 34.7527C7.18733 34.7954 7.29636 34.8171 7.40641 34.8168H11.6504C11.7505 34.8171 11.8496 34.7973 11.9421 34.7584C12.0347 34.7196 12.1187 34.6625 12.1894 34.5905C12.2602 34.5184 12.3163 34.4328 12.3544 34.3386C12.3926 34.2444 12.412 34.1434 12.4116 34.0415V29.1446C12.4116 29.0703 12.4261 28.9966 12.4541 28.928C12.4821 28.8594 12.5231 28.797 12.5749 28.7446C12.6266 28.6922 12.688 28.6506 12.7555 28.6224C12.8231 28.5942 12.8954 28.5799 12.9684 28.5802H16.0083C16.1552 28.5802 16.2962 28.6397 16.4001 28.7455C16.504 28.8514 16.5624 28.9949 16.5624 29.1446V34.0415C16.5624 34.2471 16.6426 34.4443 16.7854 34.5897C16.9281 34.7351 17.1217 34.8168 17.3237 34.8168H21.5677C21.6777 34.8171 21.7867 34.7954 21.8885 34.7527C21.9903 34.7101 22.0828 34.6473 22.1607 34.5682C22.2386 34.4891 22.3005 34.3951 22.3427 34.2916C22.3849 34.1881 22.4066 34.0771 22.4066 33.965V26.7344L14.4857 18.5913Z" fill="#69CED9"/>
        <path d="M22.417 28.2476C22.266 28.2483 22.1165 28.2184 21.977 28.1596C21.8376 28.1009 21.7111 28.0146 21.6051 27.9057L15.0707 21.2148C14.9941 21.1359 14.9029 21.0733 14.8023 21.0306C14.7016 20.9878 14.5936 20.9657 14.4844 20.9657C14.3753 20.9657 14.2672 20.9878 14.1666 21.0306C14.0659 21.0733 13.9747 21.1359 13.8981 21.2148L7.36632 27.9057C7.26055 28.0139 7.13478 28.1001 6.99619 28.159C6.8576 28.2181 6.70891 28.2487 6.5586 28.2495C6.40829 28.2502 6.2593 28.2209 6.12016 28.1633C5.98102 28.1056 5.85443 28.0208 5.74763 27.9136C5.64084 27.8063 5.55593 27.6788 5.49774 27.5383C5.43955 27.3977 5.40922 27.247 5.40851 27.0946C5.40778 26.9422 5.43668 26.7911 5.49353 26.6501C5.55038 26.509 5.63408 26.3807 5.73985 26.2724L13.6751 18.1482C13.8945 17.9368 14.1856 17.8188 14.4883 17.8188C14.791 17.8188 15.0821 17.9368 15.3015 18.1482L23.2315 26.2724C23.3914 26.4346 23.5001 26.6412 23.5439 26.8661C23.5877 27.0909 23.5647 27.324 23.4777 27.5355C23.3907 27.7471 23.2437 27.9278 23.0554 28.0545C22.867 28.1813 22.6457 28.2485 22.4196 28.2476H22.417Z" fill="#4CB2B8"/>
      </g>
      <path d="M18.9297 30.181C23.4102 30.181 27.0424 26.5488 27.0424 22.0683C27.0424 17.5878 23.4102 13.9556 18.9297 13.9556C14.4492 13.9556 10.817 17.5878 10.817 22.0683C10.817 26.5488 14.4492 30.181 18.9297 30.181Z" stroke="#FFC356" stroke-width="3.8632"/>
      <path fill-rule="evenodd" clip-rule="evenodd" d="M24.0162 22.4545C23.4117 22.4545 22.9357 21.9568 22.7866 21.371C22.3926 19.8235 21.1744 18.6053 19.6269 18.2113C19.0411 18.0622 18.5434 17.5862 18.5434 16.9817C18.5434 16.3771 19.0371 15.8775 19.6334 15.9771C22.3872 16.4371 24.5608 18.6107 25.0208 21.3645C25.1204 21.9608 24.6208 22.4545 24.0162 22.4545Z" fill="white"/>
      <path d="M30.5902 30.6233C29.7326 29.7657 28.3422 29.7657 27.4847 30.6233C26.6271 31.4808 26.6271 32.8712 27.4847 33.7288L32.8892 39.1333C33.7468 39.9908 35.1371 39.9908 35.9947 39.1333C36.8522 38.2757 36.8522 36.8854 35.9947 36.0278L30.5902 30.6233Z" fill="#FFC356"/>
    </g>
  </g>
  <defs>
    <clipPath id="clip0_1_509">
      <rect width="37.8594" height="48" fill="white"/>
    </clipPath>
  </defs>
</svg>